<svg width="148" height="30" viewBox="0 0 148 30" fill="none" xmlns="http://www.w3.org/2000/svg">
<g id="Group 176">
<g id="Group">
<path id="Vector" d="M118 21.6V7.65C118 3.44 121.44 0 125.65 0H139.59C143.8 0 147.24 3.44 147.24 7.65V21.59C147.24 25.8 143.8 29.24 139.59 29.24H125.65C121.44 29.25 118 25.8 118 21.6Z" fill="white"/>
<path id="Vector_2" d="M140.449 12.5C140.449 10.56 138.879 8.98999 136.939 8.98999H127.959C126.019 8.98999 124.449 10.56 124.449 12.5V16.68C124.449 18.62 126.019 20.19 127.959 20.19H136.939C138.879 20.19 140.449 18.62 140.449 16.68V12.5ZM135.169 14.9L131.139 16.89C130.979 16.98 130.449 16.86 130.449 16.68V12.59C130.449 12.41 130.989 12.29 131.149 12.38L134.999 14.48C135.159 14.58 135.329 14.81 135.169 14.9Z" fill="#545EE1"/>
</g>
<g id="Group_2">
<path id="Vector_3" d="M39 21.59V7.65C39 3.44 42.44 0 46.65 0H60.59C64.8 0 68.24 3.44 68.24 7.65V21.59C68.24 25.8 64.8 29.24 60.59 29.24H46.65C42.44 29.24 39 25.8 39 21.59Z" fill="white"/>
<g id="Group_3">
<path id="Vector_4" d="M58.1602 9.11011C57.6102 9.11011 57.1602 9.56011 57.1602 10.1101C57.1602 10.6701 57.6102 11.1201 58.1602 11.1201C58.7202 11.1201 59.1702 10.6701 59.1702 10.1101C59.1602 9.56011 58.7102 9.11011 58.1602 9.11011Z" fill="#545EE1"/>
<path id="Vector_5" d="M53.6907 10.4001C51.3607 10.4001 49.4707 12.2901 49.4707 14.6201C49.4707 16.9501 51.3607 18.8401 53.6907 18.8401C56.0207 18.8401 57.9107 16.9501 57.9107 14.6201C57.9107 12.2901 56.0207 10.4001 53.6907 10.4001ZM53.6907 17.3301C52.2007 17.3301 50.9907 16.1201 50.9907 14.6301C50.9907 13.1401 52.2007 11.9301 53.6907 11.9301C55.1807 11.9301 56.3907 13.1401 56.3907 14.6301C56.3907 16.1201 55.1807 17.3301 53.6907 17.3301Z" fill="#545EE1"/>
<path id="Vector_6" d="M57.0408 23.19H50.2008C47.3608 23.19 45.0508 20.88 45.0508 18.04V11.2C45.0508 8.36005 47.3608 6.05005 50.2008 6.05005H57.0408C59.8808 6.05005 62.1908 8.36005 62.1908 11.2V18.04C62.1908 20.88 59.8808 23.19 57.0408 23.19ZM50.2008 7.66005C48.2508 7.66005 46.6608 9.25005 46.6608 11.2V18.04C46.6608 19.99 48.2508 21.58 50.2008 21.58H57.0408C58.9908 21.58 60.5808 19.99 60.5808 18.04V11.2C60.5808 9.25005 58.9908 7.66005 57.0408 7.66005H50.2008Z" fill="#545EE1"/>
</g>
</g>
<g id="Group_4">
<path id="Vector_7" d="M79 21.59V7.65C79 3.44 82.44 0 86.65 0H100.59C104.8 0 108.24 3.44 108.24 7.65V21.59C108.24 25.8 104.8 29.24 100.59 29.24H95.9L93.45 28.64L91.34 29.24H86.65C82.44 29.24 79 25.8 79 21.59Z" fill="white"/>
<g id="Group_5">
<path id="Vector_8" d="M99.3091 19.3299L99.9591 15.0999H95.8991V12.3599C95.8991 11.1999 96.4691 10.0799 98.2791 10.0799H100.119V6.47994C100.119 6.47994 98.4491 6.18994 96.8491 6.18994C93.5091 6.18994 91.3291 8.20994 91.3291 11.8799V15.0999H87.6191V19.3299H91.3291V29.2399H95.8991V19.3299H99.3091Z" fill="#545EE1"/>
</g>
</g>
<g id="Group_6">
<path id="Vector_9" d="M0 21.6V7.65C0 3.44 3.44 0 7.65 0H21.59C25.8 0 29.24 3.44 29.24 7.65V21.59C29.24 25.8 25.8 29.24 21.59 29.24H7.65C3.45 29.25 0 25.8 0 21.6Z" fill="white"/>
<path id="Vector_10" fill-rule="evenodd" clip-rule="evenodd" d="M13.5006 17.8C13.4906 17.85 13.4706 17.89 13.4606 17.94C12.8106 20.49 12.7406 21.06 12.0706 22.25C11.7506 22.81 11.3906 23.35 10.9906 23.86C10.9406 23.92 10.9006 23.99 10.8106 23.97C10.7106 23.95 10.7006 23.86 10.6906 23.78C10.5806 23 10.5206 22.23 10.5506 21.44C10.5806 20.42 10.7106 20.07 12.0306 14.54C12.0506 14.46 12.0306 14.39 12.0006 14.31C11.6906 13.46 11.6206 12.6 11.9006 11.72C12.5006 9.82996 14.6306 9.68996 15.0106 11.25C15.2406 12.21 14.6306 13.47 14.1606 15.34C13.7706 16.88 15.5806 17.97 17.1306 16.85C18.5606 15.82 19.1106 13.34 19.0006 11.58C18.7906 8.07996 14.9506 7.31996 12.5106 8.44996C9.72061 9.73996 9.08062 13.21 10.3406 14.79C10.5006 14.99 10.6206 15.11 10.5706 15.32C10.4906 15.64 10.4206 15.96 10.3306 16.27C10.2606 16.5 10.0706 16.59 9.83061 16.49C9.36061 16.3 8.98062 16.01 8.66062 15.62C7.59062 14.29 7.28062 11.67 8.70062 9.44996C10.2706 6.98996 13.1906 5.98996 15.8506 6.28996C19.0306 6.64996 21.0506 8.82996 21.4206 11.29C21.5906 12.41 21.4706 15.19 19.8906 17.15C18.0706 19.4 15.1306 19.55 13.7706 18.17C13.6906 18.06 13.6006 17.93 13.5006 17.8Z" fill="#545EE1"/>
</g>
</g>
</svg>
